<svg width="75" height="85" viewBox="0 0 75 85" fill="none" xmlns="http://www.w3.org/2000/svg">
<g id="arrows" clip-path="url(#clip0_10006_3962)">
<path id="Vector" d="M72.1736 19.6266C70.1328 27.0876 66.2785 34.5373 59.3922 38.5612C53.7741 41.8448 46.5591 42.3605 40.9571 38.8733L42.3771 37.9858C42.6686 42.4528 41.7148 46.9177 39.6221 50.8827C37.5295 54.8476 34.3802 58.1567 30.5255 60.4408C26.873 62.5215 22.7525 63.6323 18.5572 63.6672C13.3953 63.7434 8.78413 61.6651 3.98829 60.0602C2.81269 59.6736 3.47713 57.8618 4.64897 58.2537C8.89201 59.6661 12.988 61.5549 17.5244 61.7358C21.4625 61.8743 25.3721 60.979 28.8653 59.1387C36.4478 55.1383 40.9454 46.7682 40.5673 38.2714C40.5443 38.0969 40.5721 37.9192 40.6474 37.7598C40.7228 37.6003 40.8425 37.4659 40.9921 37.3727C41.1417 37.2795 41.3149 37.2315 41.4908 37.2344C41.6667 37.2373 41.8378 37.2911 41.9835 37.3893C47.2103 40.6904 54.0852 39.8944 59.213 36.7329C65.4181 32.9107 69.0405 26.0124 71.1839 19.2682C71.39 18.6189 72.3382 18.9799 72.163 19.6192L72.1736 19.6266Z" fill="#FDCB08"/>
<path id="Vector_2" d="M5.25911 57.9063C8.47977 55.5262 12.3529 53.7906 15.8909 51.9133C16.8798 51.3887 17.7572 52.8683 16.9124 53.5585C13.4617 56.3526 9.57426 58.556 5.40831 60.0791L5.87846 58.8216L8.72298 64.2694C9.56909 65.8939 10.8038 67.6183 11.1597 69.4206C11.1824 69.5953 11.1486 69.7728 11.0631 69.9272C10.9776 70.0816 10.845 70.2046 10.6848 70.2781C10.5246 70.3517 10.3452 70.3719 10.1731 70.3358C10.001 70.2997 9.84516 70.2092 9.72859 70.0777C8.4641 68.7535 7.76519 66.7084 6.9281 65.0824L4.11813 59.6194C4.01884 59.3902 4.01238 59.1311 4.10007 58.8965C4.18776 58.662 4.36276 58.4703 4.58828 58.3619C8.60379 56.9018 12.3491 54.7791 15.6686 52.082L16.6901 53.7272C13.1751 55.4936 9.55805 57.6171 5.81678 58.8417C5.2837 59.013 4.72214 58.3294 5.25466 57.935L5.25911 57.9063Z" fill="#FDCB08"/>
<path id="Vector_3" d="M16.825 52.6857C15.9666 55.8311 15.1164 58.9797 14.2745 62.1315L13.0685 66.7006C12.6967 68.1549 12.524 69.7978 11.7334 71.083C11.6485 71.1969 11.5325 71.2839 11.3994 71.3333C11.2664 71.3827 11.1221 71.3923 10.9839 71.3611C10.8458 71.3299 10.7198 71.2592 10.6214 71.1575C10.5229 71.0557 10.4562 70.9275 10.4293 70.7882C10.3378 69.3956 10.877 68.0518 11.2438 66.7053C11.6867 65.0946 12.1424 63.4771 12.6425 61.8751C13.6428 58.671 14.7651 55.5109 16.0094 52.3948C16.0509 52.2898 16.1315 52.2051 16.2342 52.1583C16.3368 52.1116 16.4534 52.1066 16.5593 52.1444C16.6652 52.1822 16.7522 52.2598 16.8018 52.3608C16.8514 52.4619 16.8597 52.5784 16.825 52.6857Z" fill="#FDCB08"/>
</g>
<defs>
<clipPath id="clip0_10006_3962">
<rect width="78" height="36" fill="white" transform="matrix(-0.577647 0.816287 0.816287 0.577647 45.0566 0)"/>
</clipPath>
</defs>
</svg>
