<svg width="57" height="57" viewBox="0 0 57 57" fill="none" xmlns="http://www.w3.org/2000/svg">
<g id="Frame" clip-path="url(#clip0_10006_3966)">
<g id="Group">
<g id="Group_2">
<g id="Group_3">
<path id="Vector" d="M35.9017 14.4303C35.3264 14.0981 34.5907 14.2953 34.2585 14.8706C33.9264 15.4459 34.1235 16.1816 34.6988 16.5138C38.1458 18.5039 39.3314 22.9269 37.3416 26.3734C37.0094 26.9487 37.2066 27.6844 37.7819 28.0166C38.3572 28.3487 39.0929 28.1516 39.425 27.5763C42.0781 22.981 40.4976 17.0837 35.9017 14.4303Z" fill="#FF6C40"/>
</g>
</g>
<g id="Group_4">
<g id="Group_5">
<path id="Vector_2" d="M35.4614 8.99425C30.187 7.26039 24.1886 8.83678 20.4503 12.9928C17.2936 16.5023 16.0204 21.1203 16.9574 25.6629C17.4154 27.8833 17.0458 30.2518 15.9403 32.1666L14.7374 34.25C13.9371 35.6362 14.1647 37.3378 15.1811 38.4684C14.1884 41.1386 15.1696 44.3148 17.7794 45.8216C20.3885 47.328 23.63 46.5905 25.4466 44.3952C26.9339 44.7101 28.5213 44.0564 29.3217 42.6702L30.5246 40.5867C31.6322 38.6682 33.4877 37.1885 35.7489 36.4203C39.0588 35.2958 41.8442 33.0093 43.592 29.9821C48.1455 22.0951 44.3892 11.9295 35.4614 8.99425ZM18.9822 43.7382C17.6431 42.9651 17.001 41.3658 17.2824 39.8771L23.1759 43.2797C22.0274 44.2678 20.3213 44.5114 18.9822 43.7382ZM27.2382 41.4673C26.9065 42.0418 26.1694 42.2393 25.595 41.9076L17.2612 37.0961C16.6868 36.7645 16.4892 36.0273 16.8209 35.4529L17.4223 34.4112L27.8396 40.4256L27.2382 41.4673ZM34.975 34.1425C32.5652 34.9612 30.5173 36.4438 29.0998 38.3752L18.5681 32.2948C19.5329 30.1005 19.8067 27.5674 19.3137 25.177C18.5328 21.3911 19.599 17.5365 22.2389 14.6017C25.3207 11.1756 30.3324 9.84068 34.7101 11.2798C42.1834 13.7364 45.2996 22.2129 41.5086 28.7792C40.0526 31.301 37.7323 33.2057 34.975 34.1425Z" fill="#FF6C40"/>
</g>
</g>
<g id="Group_6">
<g id="Group_7">
<path id="Vector_3" d="M16.4376 14.3044L14.3541 13.1016C13.7788 12.7694 13.0431 12.9665 12.7109 13.5419C12.3788 14.1172 12.5759 14.8529 13.1512 15.185L15.2347 16.3879C15.81 16.7201 16.5457 16.5229 16.8779 15.9476C17.21 15.3723 17.0129 14.6366 16.4376 14.3044Z" fill="#FF6C40"/>
</g>
</g>
<g id="Group_8">
<g id="Group_9">
<path id="Vector_4" d="M19.8763 9.34495L19.2537 7.02118C19.0818 6.3795 18.4222 5.99867 17.7804 6.17062C17.1387 6.34256 16.7579 7.00212 16.9299 7.64383L17.5525 9.9676C17.7244 10.6093 18.384 10.9902 19.0258 10.8182C19.6675 10.6462 20.0483 9.98666 19.8763 9.34495Z" fill="#FF6C40"/>
</g>
</g>
<g id="Group_10">
<g id="Group_11">
<path id="Vector_5" d="M13.5095 20.3725C13.3375 19.7308 12.6779 19.3499 12.0363 19.5219L9.71248 20.1446C9.07077 20.3165 8.68998 20.9761 8.86192 21.6178C9.0338 22.2594 9.69338 22.6404 10.3351 22.4683L12.6589 21.8457C13.3006 21.6737 13.6814 21.0142 13.5095 20.3725Z" fill="#FF6C40"/>
</g>
</g>
<g id="Group_12">
<g id="Group_13">
<path id="Vector_6" d="M47.8283 32.4279L45.7449 31.225C45.1695 30.8928 44.4338 31.09 44.1017 31.6653C43.7695 32.2406 43.9667 32.9763 44.542 33.3084L46.6254 34.5113C47.2007 34.8435 47.9364 34.6463 48.2686 34.071C48.6008 33.4957 48.4036 32.76 47.8283 32.4279Z" fill="#FF6C40"/>
</g>
</g>
<g id="Group_14">
<g id="Group_15">
<path id="Vector_7" d="M52.1176 25.9952C51.9457 25.3535 51.2861 24.9726 50.6444 25.1446L48.3206 25.7672C47.6789 25.9392 47.2981 26.5987 47.4701 27.2405C47.642 27.8821 48.3016 28.263 48.9433 28.091L51.2671 27.4684C51.9088 27.2964 52.2896 26.6369 52.1176 25.9952Z" fill="#FF6C40"/>
</g>
</g>
<g id="Group_16">
<g id="Group_17">
<path id="Vector_8" d="M44.0497 39.9691L43.427 37.6453C43.2551 37.0036 42.5955 36.6228 41.9538 36.7948C41.3121 36.9667 40.9313 37.6263 41.1032 38.268L41.7259 40.5917C41.8978 41.2334 42.5574 41.6143 43.1991 41.4423C43.8408 41.2704 44.2216 40.6108 44.0497 39.9691Z" fill="#FF6C40"/>
</g>
</g>
</g>
</g>
<defs>
<clipPath id="clip0_10006_3966">
<rect width="41.0585" height="41.0585" fill="white" transform="translate(20.5293) rotate(30)"/>
</clipPath>
</defs>
</svg>
