<svg width="21" height="20" viewBox="0 0 21 20" fill="none" xmlns="http://www.w3.org/2000/svg">
<g id="Group">
<path id="Vector" d="M0.5 10C0.5 4.477 4.977 0 10.5 0C16.023 0 20.5 4.477 20.5 10C20.5 15.523 16.023 20 10.5 20C4.98 19.994 0.506001 15.52 0.5 10ZM18.5 10C18.5 8.41775 18.0308 6.87103 17.1518 5.55544C16.2727 4.23984 15.0233 3.21447 13.5615 2.60896C12.0997 2.00346 10.4911 1.84504 8.93928 2.15372C7.38743 2.4624 5.96197 3.22433 4.84315 4.34315C3.72433 5.46197 2.9624 6.88743 2.65372 8.43928C2.34504 9.99113 2.50346 11.5997 3.10896 13.0615C3.71446 14.5233 4.73985 15.7727 6.05544 16.6518C7.37103 17.5308 8.91775 18 10.5 18C12.621 17.9976 14.6544 17.154 16.1542 15.6542C17.654 14.1544 18.4976 12.121 18.5 10ZM5.5 10L10.5 5L11.91 6.41L9.33 9L15.5 9L15.5 11L9.33 11L11.91 13.59L10.5 15L5.5 10Z" fill="white"/>
</g>
</svg>
